# xmcd CD database file
#
# Track frame offsets:
#	150
#	20818
#	45155
#	64970
#	93590
#	120323
#	143198
#	168438
#	192680
#	214278
#	237233
#	265293
#
# Disc length: 3780 seconds
#
# Revision: 1
# Processed by: cddbd v1.5.2PL0 Copyright (c) Steve Scherf et al.
# Submitted via: CDex 1.51
#
DISCID=b20ec20c
DTITLE=quasimode - daybreak
DYEAR=2009
DGENRE=Jazz
TTITLE0=All Is One
TTITLE1=Daybreak
TTITLE2=Happy Few
TTITLE3=Escape from Darkness
TTITLE4=Relight My Fire
TTITLE5=Havana Brown
TTITLE6=Take Me Out
TTITLE7=Feelin' of Four
TTITLE8=Nation Hill
TTITLE9=Rules of The Blood
TTITLE10=Afro Blue
TTITLE11=Jellyfish
EXTD=YEAR: 2009
EXTT0=
EXTT1=
EXTT2=
EXTT3=
EXTT4=
EXTT5=
EXTT6=
EXTT7=
EXTT8=
EXTT9=
EXTT10=
EXTT11=
PLAYORDER=
